<svg id="visual" viewBox="0 0 960 540" width="960" height="540" xmlns="http://www.w3.org/2000/svg" xmlns:xlink="http://www.w3.org/1999/xlink" version="1.1"><path d="M0 44L87 71L175 55L262 55L349 136L436 60L524 82L611 77L698 120L785 109L873 104L960 125L960 0L873 0L785 0L698 0L611 0L524 0L436 0L349 0L262 0L175 0L87 0L0 0Z" fill="#00cc8e"></path><path d="M0 244L87 158L175 217L262 233L349 287L436 152L524 206L611 163L698 190L785 325L873 212L960 185L960 123L873 102L785 107L698 118L611 75L524 80L436 58L349 134L262 53L175 53L87 69L0 42Z" fill="#00b98a"></path><path d="M0 287L87 206L175 266L262 303L349 341L436 228L524 293L611 222L698 244L785 395L873 271L960 271L960 183L873 210L785 323L698 188L611 161L524 204L436 150L349 285L262 231L175 215L87 156L0 242Z" fill="#00a784"></path><path d="M0 401L87 303L175 325L262 363L349 428L436 266L524 363L611 309L698 314L785 444L873 374L960 352L960 269L873 269L785 393L698 242L611 220L524 291L436 226L349 339L262 301L175 264L87 204L0 285Z" fill="#00957c"></path><path d="M0 541L87 541L175 541L262 541L349 541L436 541L524 541L611 541L698 541L785 541L873 541L960 541L960 350L873 372L785 442L698 312L611 307L524 361L436 264L349 426L262 361L175 323L87 301L0 399Z" fill="#038373"></path></svg>